# xmcd CD database file
#
# Track frame offsets:
#	150
#	17453
#	37019
#	58996
#	77048
#	107341
#	125169
#	145090
#	166871
#	193284
#	209565
#	232229
#	250381
#	277915
#
# Disc length: 4023 seconds
#
# Revision: 0
# Processed by: cddbd v1.5.2PL0 Copyright (c) Steve Scherf et al.
# Submitted via: CDex 1.70beta2
#
DISCID=ce0fb50e
DTITLE=Taylor Swift - Speak Now
DYEAR=2010
DGENRE=Country
TTITLE0=Mine
TTITLE1=Sparks Fly
TTITLE2=Back To December
TTITLE3=Speak Now
TTITLE4=Dear John
TTITLE5=Mean
TTITLE6=The Story Of Us
TTITLE7=Never Grow Up
TTITLE8=Enchanted
TTITLE9=Better Than Revenge
TTITLE10=Innocent
TTITLE11=Haunted
TTITLE12=Last Kiss
TTITLE13=Long Live
EXTD=YEAR: 2010
EXTT0=
EXTT1=
EXTT2=
EXTT3=
EXTT4=
EXTT5=
EXTT6=
EXTT7=
EXTT8=
EXTT9=
EXTT10=
EXTT11=
EXTT12=
EXTT13=
PLAYORDER=
